<?xml version="1.0" encoding="UTF-8"?><svg id="a" xmlns="http://www.w3.org/2000/svg" viewBox="0 0 512.13 531.76"><defs><style>.b{fill:#fff;}</style></defs><path class="b" d="M422.14,0H90.12C40.42,0,.13,40.29,.13,89.99V422.01c0,49.7,40.29,89.99,89.99,89.99H422.14c49.7,0,89.99-40.29,89.99-89.99V89.99c0-49.7-40.29-89.99-89.99-89.99ZM177.74,308.25c9.08,15.38,21.93,27.45,38.54,36.22,16.61,8.77,35.07,13.15,55.37,13.15,17.32,0,33.14-3.07,47.48-9.21,14.34-6.14,30.1-17.3,47.28-33.49l40.46,40.04c-23.16,21.44-45.04,36.3-65.64,44.6-20.6,8.29-44.12,12.44-70.55,12.44-48.74,0-88.63-14.66-119.68-43.97-31.05-29.31-46.57-66.88-46.57-112.7,0-29.65,7.07-56,21.21-79.04,14.14-23.04,34.38-41.57,60.74-55.59,26.36-14.01,54.74-21.02,85.15-21.02,25.86,0,50.76,5.18,74.7,15.54,23.94,10.36,44.58,25.09,61.92,44.2l-41.74,37.74c-28.39-28.46-60.34-42.69-95.83-42.69-29.96,0-55.19,9.71-75.7,29.14s-30.77,43.37-30.77,71.84c0,19.83,4.54,37.44,13.63,52.81Z"/></svg>